<?xml version="1.0" encoding="UTF-8" standalone="no"?>
<!DOCTYPE svg PUBLIC "-//W3C//DTD SVG 1.1//EN" "http://www.w3.org/Graphics/SVG/1.1/DTD/svg11.dtd">
<svg width="100%" height="100%" viewBox="0 0 800 800" version="1.1" xmlns="http://www.w3.org/2000/svg" xmlns:xlink="http://www.w3.org/1999/xlink" xml:space="preserve" xmlns:serif="http://www.serif.com/" style="fill-rule:evenodd;clip-rule:evenodd;stroke-linejoin:round;stroke-miterlimit:2;">
    <path d="M539.187,0C539.187,0 609.861,172.9 306.964,289.036C142.376,352.124 15.963,513.823 166.9,763.609C179.4,651.959 232.999,405.785 463.474,349.61C463.474,349.61 248.962,429.822 230.013,792.908C340.238,808.384 598.748,818.783 675.499,594.446C776.849,298.048 539.187,0 539.187,0Z" style="fill:rgb(58,127,13);fill-rule:nonzero;"/>
    <path d="M230.113,791.397C464.112,698.009 634.374,479.237 657.873,218.074C610.036,89.037 539.187,0 539.187,0C539.187,0 609.861,172.9 306.964,289.036C142.376,352.124 15.963,513.823 166.9,763.609C179.4,651.959 232.999,405.785 463.474,349.61C463.461,349.612 249.587,429.624 230.113,791.397Z" style="fill:rgb(73,160,16);fill-rule:nonzero;"/>
</svg>
