<?xml version="1.0" encoding="UTF-8" standalone="no"?>
<!DOCTYPE svg PUBLIC "-//W3C//DTD SVG 1.1//EN" "http://www.w3.org/Graphics/SVG/1.1/DTD/svg11.dtd">
<svg width="100%" height="100%" viewBox="0 0 605 175" version="1.1" xmlns="http://www.w3.org/2000/svg" xmlns:xlink="http://www.w3.org/1999/xlink" xml:space="preserve" xmlns:serif="http://www.serif.com/" style="fill-rule:evenodd;clip-rule:evenodd;stroke-linejoin:round;stroke-miterlimit:2;">
    <g transform="matrix(4.16667,0,0,4.16667,-344.348,-815.581)">
        <path d="M227.693,195.739L171.858,195.739C170.86,195.739 169.926,195.819 169.053,195.963C168.108,196.12 167.228,196.351 166.41,196.637C165.639,196.907 164.921,197.253 164.258,197.673C163.6,198.09 163.002,198.579 162.465,199.138L162.448,199.155C161.883,199.697 161.393,200.294 160.979,200.945C160.563,201.598 160.219,202.312 159.947,203.088C159.672,203.873 159.459,204.721 159.309,205.629C159.159,206.546 159.071,207.52 159.047,208.548L159.049,224.664C159.071,225.717 159.158,226.705 159.309,227.629C159.459,228.548 159.671,229.4 159.947,230.185C160.217,230.955 160.568,231.665 160.989,232.321C161.412,232.98 161.905,233.583 162.458,234.14C163.579,235.269 164.929,236.148 166.516,236.739C168.059,237.313 169.836,237.618 171.858,237.618L227.693,237.618L227.693,212.791L210.808,212.791L203.105,220.494L219.773,220.494L219.773,229.914L172.793,229.914C172.337,229.914 171.898,229.881 171.479,229.814C171.055,229.747 170.663,229.647 170.305,229.514C169.941,229.38 169.604,229.216 169.297,229.025C168.983,228.829 168.7,228.607 168.452,228.358C167.951,227.858 167.576,227.241 167.327,226.508C167.088,225.804 166.968,224.997 166.968,224.089L166.968,209.34C166.968,208.41 167.093,207.59 167.334,206.876C167.584,206.138 167.957,205.517 168.445,205.009C168.943,204.489 169.56,204.093 170.302,203.828C171.018,203.574 171.846,203.442 172.793,203.442L219.99,203.442L227.693,195.739Z" style="fill:rgb(83,108,74);fill-rule:nonzero;"/>
    </g>
    <g transform="matrix(4.16667,0,0,4.16667,-344.348,-815.581)">
        <path d="M96.316,203.442L142.462,203.442C143.37,203.442 144.177,203.562 144.882,203.802C145.61,204.049 146.226,204.424 146.729,204.926L146.732,204.929C147.233,205.431 147.608,206.054 147.856,206.798C148.096,207.516 148.216,208.339 148.216,209.268L148.216,224.089C148.216,224.997 148.095,225.803 147.856,226.508C147.609,227.237 147.233,227.854 146.73,228.357C146.486,228.604 146.208,228.826 145.897,229.022C145.595,229.213 145.266,229.377 144.907,229.512C144.552,229.646 144.165,229.747 143.751,229.814C143.341,229.881 142.91,229.914 142.462,229.914L96.316,229.914C95.869,229.914 95.437,229.881 95.027,229.814C94.613,229.747 94.227,229.646 93.871,229.512C93.513,229.377 93.183,229.213 92.881,229.022C92.57,228.826 92.292,228.604 92.048,228.357C91.545,227.854 91.169,227.237 90.922,226.508C90.683,225.803 90.562,224.997 90.562,224.089L90.562,209.268C90.562,208.339 90.682,207.516 90.922,206.798C91.17,206.054 91.545,205.431 92.046,204.929L92.049,204.926C92.552,204.424 93.169,204.049 93.897,203.802C94.602,203.562 95.409,203.442 96.316,203.442ZM95.453,237.618L143.325,237.618C145.343,237.618 147.116,237.313 148.656,236.74C150.243,236.149 151.596,235.267 152.726,234.137C153.843,233.021 154.693,231.69 155.262,230.134L155.262,230.131C155.839,228.553 156.135,226.735 156.135,224.664L156.135,208.548C156.135,206.502 155.841,204.699 155.265,203.133C154.695,201.583 153.846,200.257 152.729,199.148C152.172,198.594 151.571,198.101 150.916,197.679C150.262,197.257 149.555,196.906 148.786,196.637C147.969,196.351 147.086,196.12 146.14,195.964C145.263,195.82 144.325,195.739 143.325,195.739L95.453,195.739C94.454,195.739 93.515,195.82 92.638,195.964C91.692,196.12 90.809,196.351 89.993,196.637C89.223,196.906 88.516,197.257 87.862,197.679C87.207,198.101 86.606,198.594 86.049,199.148C84.932,200.257 84.083,201.583 83.513,203.133C82.937,204.699 82.644,206.502 82.644,208.548L82.644,224.664C82.644,226.735 82.939,228.553 83.516,230.131L83.516,230.134C84.086,231.69 84.936,233.021 86.052,234.137C87.182,235.267 88.535,236.149 90.122,236.74C91.662,237.313 93.435,237.618 95.453,237.618Z" style="fill:rgb(83,108,74);fill-rule:nonzero;"/>
    </g>
    <g transform="matrix(4.16667,0,0,4.16667,-344.348,-818.804)">
        <path d="M102.987,209.193L102.987,220.787C102.987,221.521 103.13,222.046 103.416,222.361C103.731,222.647 104.256,222.791 104.991,222.791L110.544,222.791L110.544,226.369L104.733,226.369C103.75,226.369 102.92,226.264 102.238,226.059C101.555,225.854 101.002,225.539 100.582,225.109C100.153,224.689 99.838,224.131 99.633,223.439C99.428,222.748 99.323,221.922 99.323,220.958L99.323,209.193L102.987,209.193ZM117.815,221.359C117.214,221.359 116.765,221.474 116.469,221.702C116.164,221.932 116.011,222.27 116.011,222.719L116.011,222.791L121.321,222.791L121.321,221.359L117.815,221.359ZM121.321,217.781C121.321,217.561 121.283,217.352 121.207,217.156C121.131,216.961 121.016,216.808 120.863,216.693C120.558,216.464 120.11,216.35 119.518,216.35L112.333,216.35L115.911,212.771L120.534,212.771L120.534,212.786C121.937,212.862 123.006,213.201 123.74,213.802C124.57,214.489 124.986,215.515 124.986,216.879L124.986,226.369L121.321,226.369L121.321,223.85L118.802,226.369L112.333,226.369L112.333,221.86C112.333,219.141 113.989,217.781 117.3,217.781L121.321,217.781ZM133.974,222.791C134.565,222.791 135.019,222.676 135.334,222.447C135.62,222.228 135.772,221.889 135.791,221.431L135.791,217.709C135.772,217.251 135.62,216.913 135.334,216.693C135.019,216.464 134.561,216.35 133.969,216.35L132.247,216.35C131.646,216.35 131.193,216.464 130.897,216.693C130.591,216.913 130.439,217.251 130.439,217.709L130.448,225.309L132.967,222.791L133.974,222.791ZM126.774,207.762L130.439,207.762L130.439,215.291L132.967,212.771L134.475,212.771C137.795,212.771 139.456,214.131 139.456,216.851L139.456,222.261C139.456,223.625 139.04,224.651 138.206,225.338C137.376,226.025 136.13,226.369 134.48,226.369L126.774,226.369L126.774,207.762Z" style="fill:rgb(83,108,74);fill-rule:nonzero;"/>
    </g>
</svg>
